<svg width="40" height="40" viewBox="0 0 40 40" fill="none" xmlns="http://www.w3.org/2000/svg">
<g clip-path="url(#clip0_385_2943)">
<path d="M29.7694 13.054L29.1477 10.0173C28.8294 8.46368 27.4628 7.39404 25.9371 7.39404C25.7189 7.39404 25.4974 7.41537 25.2743 7.46131L8.22731 10.9573C6.45223 11.3215 5.30876 13.0556 5.67132 14.8307L8.07309 26.5475C8.2027 27.1824 8.51112 27.7353 8.9311 28.1684V28.2865C8.9311 30.0993 10.3994 31.5676 12.2122 31.5676H29.6136C31.4264 31.5676 32.8947 30.0993 32.8947 28.2865V16.3285C32.8963 14.5682 31.5101 13.136 29.7694 13.054ZM29.6152 14.0317C29.7383 14.0317 29.858 14.0449 29.9761 14.0629C31.072 14.2368 31.912 15.185 31.912 16.3285V25.5058C30.7209 23.1466 28.0304 18.2184 26.3538 18.2053C24.6132 18.1905 20.7677 22.7759 18.5267 25.6534C17.1716 22.9727 15.4539 20.0017 14.4844 20.0017C13.1244 20.0017 10.8801 23.4862 9.91708 25.0907V16.3285C9.91708 15.062 10.9473 14.0317 12.2139 14.0317H28.9639H29.6152ZM8.93274 25.8355L6.63597 14.6338C6.38168 13.3935 7.18391 12.1763 8.42417 11.922L25.4712 8.42595C25.6254 8.39478 25.7812 8.37838 25.9354 8.37838C27.0182 8.37838 27.9632 9.15108 28.1814 10.2142L28.7621 13.0458H12.2139C10.401 13.0458 8.93274 14.514 8.93274 16.3269V25.8355Z" fill="#ECEFF3"/>
<path d="M18.1029 19.0989C19.2786 19.0721 20.2099 18.0973 20.1831 16.9216C20.1563 15.7459 19.1815 14.8145 18.0058 14.8413C16.83 14.8682 15.8987 15.843 15.9255 17.0187C15.9523 18.1944 16.9272 19.1258 18.1029 19.0989Z" fill="#ECEFF3"/>
<path d="M12.2138 30.6061H28.9638H29.6151C29.7382 30.6061 29.8579 30.593 29.9761 30.575C31.0719 30.4011 31.9119 29.4528 31.9119 28.3094L31.9086 26.2095C31.8233 26.0339 31.7282 25.8485 31.6199 25.6517C29.2214 21.319 27.3873 18.5399 26.3455 18.53C25.7861 18.53 23.9322 19.2437 18.7858 25.8518L18.4676 26.2603L18.2346 25.7977C15.6048 20.5906 14.65 20.3264 14.4843 20.3264C13.664 20.3264 12.0218 22.2147 10.1992 25.2563L9.92027 25.7206L9.91699 28.3077C9.91699 29.5759 10.9473 30.6061 12.2138 30.6061Z" fill="#F5F7F9"/>
<path d="M18.1023 18.7703C19.0968 18.7452 19.8827 17.9187 19.8577 16.9241C19.8326 15.9296 19.006 15.1436 18.0115 15.1687C17.0169 15.1938 16.231 16.0204 16.2561 17.0149C16.2812 18.0094 17.1077 18.7954 18.1023 18.7703Z" fill="#F5F7F9"/>
<path d="M29.1985 22.8414C29.1772 22.8414 29.1558 22.8332 29.1394 22.8184C29.1247 22.8004 29.1165 22.7807 29.1165 22.7594C29.1165 22.738 29.1247 22.7167 29.1394 22.7003C29.1706 22.6691 29.2264 22.6708 29.2559 22.7019C29.2707 22.7167 29.2805 22.738 29.2805 22.7594C29.2805 22.7807 29.2723 22.8004 29.2559 22.8168C29.2411 22.8332 29.2198 22.8414 29.1985 22.8414Z" fill="#ECEFF3"/>
<path d="M29.1165 29.1708C29.1165 29.1265 29.1525 29.0887 29.1985 29.0887C29.2428 29.0887 29.2805 29.1265 29.2805 29.1708C29.2805 29.2167 29.2428 29.2544 29.1985 29.2544C29.1525 29.2528 29.1165 29.2167 29.1165 29.1708ZM29.1165 28.3702C29.1165 28.3242 29.1525 28.2881 29.1985 28.2881C29.2428 28.2881 29.2805 28.3242 29.2805 28.3702C29.2805 28.4161 29.2428 28.4522 29.1985 28.4522C29.1525 28.4522 29.1165 28.4161 29.1165 28.3702ZM29.1165 27.5696C29.1165 27.5236 29.1525 27.4859 29.1985 27.4859C29.2428 27.4859 29.2805 27.5236 29.2805 27.5696C29.2805 27.6139 29.2428 27.6516 29.1985 27.6516C29.1525 27.6516 29.1165 27.6122 29.1165 27.5696ZM29.1165 26.7657C29.1165 26.7198 29.1525 26.6837 29.1985 26.6837C29.2428 26.6837 29.2805 26.7198 29.2805 26.7657C29.2805 26.8116 29.2428 26.8477 29.1985 26.8477C29.1525 26.8477 29.1165 26.8116 29.1165 26.7657ZM29.1165 25.9651C29.1165 25.9192 29.1525 25.8831 29.1985 25.8831C29.2428 25.8831 29.2805 25.9192 29.2805 25.9651C29.2805 26.0094 29.2428 26.0471 29.1985 26.0471C29.1525 26.0471 29.1165 26.011 29.1165 25.9651ZM29.1165 25.1645C29.1165 25.1186 29.1525 25.0825 29.1985 25.0825C29.2428 25.0825 29.2805 25.1186 29.2805 25.1645C29.2805 25.2105 29.2428 25.2465 29.1985 25.2465C29.1525 25.2465 29.1165 25.2105 29.1165 25.1645ZM29.1165 24.3639C29.1165 24.318 29.1525 24.2819 29.1985 24.2819C29.2428 24.2819 29.2805 24.318 29.2805 24.3639C29.2805 24.4082 29.2428 24.446 29.1985 24.446C29.1525 24.446 29.1165 24.4066 29.1165 24.3639ZM29.1165 23.5601C29.1165 23.5158 29.1525 23.478 29.1985 23.478C29.2428 23.478 29.2805 23.5158 29.2805 23.5601C29.2805 23.606 29.2428 23.6421 29.1985 23.6421C29.1525 23.6421 29.1165 23.6076 29.1165 23.5601Z" fill="#ECEFF3"/>
<path d="M29.1985 30.0532C29.1772 30.0532 29.1558 30.045 29.1411 30.0302C29.1247 30.0138 29.1165 29.9925 29.1165 29.9711C29.1165 29.9498 29.1247 29.9285 29.1394 29.9121C29.1722 29.8826 29.2264 29.8826 29.2559 29.9137C29.2707 29.9285 29.2805 29.9498 29.2805 29.9711C29.2805 29.9925 29.2707 30.0122 29.2559 30.0286C29.2395 30.0466 29.2198 30.0532 29.1985 30.0532Z" fill="#ECEFF3"/>
<path d="M30.1106 23.9816C30.0893 23.9816 30.0679 23.9734 30.0532 23.9587C30.0368 23.9423 30.0286 23.9209 30.0286 23.8996C30.0286 23.8766 30.0368 23.8553 30.0532 23.8406C30.0827 23.811 30.1385 23.811 30.168 23.8422C30.1844 23.857 30.1926 23.8783 30.1926 23.8996C30.1926 23.9209 30.1844 23.9423 30.1697 23.957C30.1532 23.9734 30.1319 23.9816 30.1106 23.9816Z" fill="#ECEFF3"/>
<path d="M30.0286 29.1036C30.0286 29.0576 30.0647 29.0215 30.1106 29.0215C30.1549 29.0215 30.1926 29.0576 30.1926 29.1036C30.1926 29.1495 30.1549 29.1856 30.1106 29.1856C30.0647 29.1856 30.0286 29.1495 30.0286 29.1036ZM30.0286 28.2357C30.0286 28.1914 30.0647 28.1537 30.1106 28.1537C30.1549 28.1537 30.1926 28.1914 30.1926 28.2357C30.1926 28.2816 30.1549 28.3177 30.1106 28.3177C30.0647 28.3177 30.0286 28.2833 30.0286 28.2357ZM30.0286 27.3679C30.0286 27.3236 30.0647 27.2858 30.1106 27.2858C30.1549 27.2858 30.1926 27.3236 30.1926 27.3679C30.1926 27.4138 30.1549 27.4499 30.1106 27.4499C30.0647 27.4499 30.0286 27.4138 30.0286 27.3679ZM30.0286 26.5033C30.0286 26.4573 30.0647 26.4213 30.1106 26.4213C30.1549 26.4213 30.1926 26.4573 30.1926 26.5033C30.1926 26.5476 30.1549 26.5853 30.1106 26.5853C30.0647 26.5853 30.0286 26.5459 30.0286 26.5033ZM30.0286 25.6354C30.0286 25.5895 30.0647 25.5534 30.1106 25.5534C30.1549 25.5534 30.1926 25.5895 30.1926 25.6354C30.1926 25.6797 30.1549 25.7175 30.1106 25.7175C30.0647 25.7175 30.0286 25.6781 30.0286 25.6354ZM30.0286 24.7676C30.0286 24.7216 30.0647 24.6855 30.1106 24.6855C30.1549 24.6855 30.1926 24.7216 30.1926 24.7676C30.1926 24.8119 30.1549 24.8496 30.1106 24.8496C30.0647 24.8496 30.0286 24.8102 30.0286 24.7676Z" fill="#ECEFF3"/>
<path d="M30.1106 30.0533C30.0893 30.0533 30.0679 30.0451 30.0532 30.0303C30.0368 30.0139 30.0286 29.9926 30.0286 29.9713C30.0286 29.9499 30.0368 29.9286 30.0515 29.9138C30.0843 29.881 30.1385 29.8827 30.168 29.9122C30.1844 29.9286 30.1926 29.9499 30.1926 29.9713C30.1926 29.9926 30.1844 30.0139 30.1697 30.0287C30.1532 30.0467 30.1319 30.0533 30.1106 30.0533Z" fill="#ECEFF3"/>
<path d="M31.0227 26.2047C31.0014 26.2047 30.98 26.1965 30.9653 26.1817C30.9505 26.167 30.9407 26.1456 30.9407 26.1227C30.9407 26.1013 30.9505 26.08 30.9653 26.0652C30.9948 26.0341 31.0522 26.0357 31.0818 26.0652C31.0965 26.0817 31.1047 26.103 31.1047 26.1227C31.1047 26.144 31.0965 26.167 31.0818 26.1817C31.0654 26.1965 31.0457 26.2047 31.0227 26.2047Z" fill="#ECEFF3"/>
<path d="M30.9407 28.7459C30.9407 28.7016 30.9784 28.6639 31.0227 28.6639C31.0686 28.6639 31.1047 28.7016 31.1047 28.7459C31.1047 28.7918 31.0686 28.8279 31.0227 28.8279C30.9784 28.8279 30.9407 28.7918 30.9407 28.7459ZM30.9407 27.8715C30.9407 27.8272 30.9784 27.7895 31.0227 27.7895C31.0686 27.7895 31.1047 27.8272 31.1047 27.8715C31.1047 27.9174 31.0686 27.9535 31.0227 27.9535C30.9784 27.9535 30.9407 27.9174 30.9407 27.8715ZM30.9407 26.9971C30.9407 26.9528 30.9784 26.915 31.0227 26.915C31.0686 26.915 31.1047 26.9528 31.1047 26.9971C31.1047 27.043 31.0686 27.0791 31.0227 27.0791C30.9784 27.0791 30.9407 27.043 30.9407 26.9971Z" fill="#ECEFF3"/>
<path d="M31.0227 29.7024C31.0014 29.7024 30.98 29.6942 30.9653 29.6794C30.9505 29.663 30.9407 29.6417 30.9407 29.6203C30.9407 29.599 30.9505 29.5777 30.9653 29.5629C30.9965 29.5318 31.0506 29.5318 31.0818 29.5629C31.0965 29.5793 31.1047 29.599 31.1047 29.6203C31.1047 29.6417 31.0965 29.663 31.0818 29.6778C31.0654 29.6942 31.044 29.7024 31.0227 29.7024Z" fill="#ECEFF3"/>
<path d="M28.2847 25.445C28.2633 25.445 28.2436 25.4352 28.2272 25.4204C28.2108 25.404 28.2026 25.3843 28.2026 25.363C28.2026 25.3417 28.2108 25.3203 28.2256 25.3056C28.2617 25.2711 28.3126 25.2744 28.3421 25.3039C28.3585 25.3203 28.3667 25.3417 28.3667 25.363C28.3667 25.3843 28.3585 25.404 28.3421 25.4204C28.3273 25.4368 28.306 25.445 28.2847 25.445Z" fill="#ECEFF3"/>
<path d="M28.2026 29.2053C28.2026 29.1593 28.2404 29.1232 28.2847 29.1232C28.3306 29.1232 28.3667 29.1593 28.3667 29.2053C28.3667 29.2496 28.3306 29.2873 28.2847 29.2873C28.2404 29.2873 28.2026 29.2479 28.2026 29.2053ZM28.2026 28.4342C28.2026 28.3899 28.2404 28.3538 28.2847 28.3538C28.3306 28.3538 28.3667 28.3899 28.3667 28.4342C28.3667 28.4801 28.3306 28.5179 28.2847 28.5179C28.2404 28.5195 28.2026 28.4801 28.2026 28.4342ZM28.2026 27.6681C28.2026 27.6221 28.2404 27.586 28.2847 27.586C28.3306 27.586 28.3667 27.6221 28.3667 27.6681C28.3667 27.714 28.3306 27.7501 28.2847 27.7501C28.2404 27.7501 28.2026 27.714 28.2026 27.6681ZM28.2026 26.9003C28.2026 26.8543 28.2404 26.8182 28.2847 26.8182C28.3306 26.8182 28.3667 26.8543 28.3667 26.9003C28.3667 26.9446 28.3306 26.9823 28.2847 26.9823C28.2404 26.9823 28.2026 26.9429 28.2026 26.9003ZM28.2026 26.1309C28.2026 26.0849 28.2404 26.0488 28.2847 26.0488C28.3306 26.0488 28.3667 26.0849 28.3667 26.1309C28.3667 26.1752 28.3306 26.2129 28.2847 26.2129C28.2404 26.2129 28.2026 26.1768 28.2026 26.1309Z" fill="#ECEFF3"/>
<path d="M28.2847 30.0533C28.2633 30.0533 28.2436 30.0451 28.2272 30.0304C28.2108 30.0123 28.2026 29.9926 28.2026 29.9713C28.2026 29.95 28.2108 29.9287 28.2256 29.9139C28.2601 29.8811 28.3126 29.8827 28.3421 29.9139C28.3585 29.9287 28.3667 29.95 28.3667 29.9713C28.3667 29.9926 28.3585 30.0123 28.3437 30.0287C28.3273 30.0468 28.306 30.0533 28.2847 30.0533Z" fill="#ECEFF3"/>
<path d="M18.8071 17.5671C18.8071 17.5211 18.8449 17.485 18.8892 17.485C18.9351 17.485 18.9712 17.5211 18.9712 17.5671C18.9712 17.613 18.9351 17.6491 18.8892 17.6491C18.8449 17.6491 18.8071 17.6146 18.8071 17.5671ZM18.8071 16.7468C18.8071 16.7009 18.8449 16.6648 18.8892 16.6648C18.9351 16.6648 18.9712 16.7009 18.9712 16.7468C18.9712 16.7927 18.9351 16.8288 18.8892 16.8288C18.8449 16.8288 18.8071 16.7944 18.8071 16.7468ZM18.8071 15.9265C18.8071 15.8806 18.8449 15.8445 18.8892 15.8445C18.9351 15.8445 18.9712 15.8806 18.9712 15.9265C18.9712 15.9724 18.9351 16.0085 18.8892 16.0085C18.8449 16.0085 18.8071 15.9741 18.8071 15.9265Z" fill="#ECEFF3"/>
<path d="M19.3914 17.0471C19.3914 17.0011 19.4274 16.9651 19.4734 16.9651C19.5177 16.9651 19.5554 17.0011 19.5554 17.0471C19.5554 17.0914 19.5177 17.1291 19.4734 17.1291C19.4274 17.1291 19.3914 17.0914 19.3914 17.0471ZM19.3914 16.2268C19.3914 16.1809 19.4274 16.1448 19.4734 16.1448C19.5177 16.1448 19.5554 16.1809 19.5554 16.2268C19.5554 16.2711 19.5177 16.3088 19.4734 16.3088C19.4274 16.3088 19.3914 16.2711 19.3914 16.2268Z" fill="#ECEFF3"/>
<path d="M18.2249 18.11C18.2249 18.0641 18.2609 18.0264 18.3069 18.0264C18.3528 18.0264 18.3889 18.0641 18.3889 18.11C18.3889 18.1543 18.3528 18.1921 18.3069 18.1921C18.2609 18.1921 18.2249 18.156 18.2249 18.11ZM18.2249 17.2898C18.2249 17.2455 18.2609 17.2094 18.3069 17.2094C18.3528 17.2094 18.3889 17.2455 18.3889 17.2898C18.3889 17.3357 18.3528 17.3718 18.3069 17.3718C18.2609 17.3718 18.2249 17.3357 18.2249 17.2898ZM18.2249 16.4695C18.2249 16.4252 18.2609 16.3875 18.3069 16.3875C18.3528 16.3875 18.3889 16.4252 18.3889 16.4695C18.3889 16.5154 18.3528 16.5531 18.3069 16.5531C18.2609 16.5515 18.2249 16.5154 18.2249 16.4695Z" fill="#ECEFF3"/>
<path d="M20 0C8.95415 0 0 8.95415 0 20C0 31.0459 8.95415 40 20 40C31.0459 40 40 31.0459 40 20C40 8.95415 31.0459 0 20 0ZM7.56624 7.56624C10.8867 4.24411 15.3031 2.41654 20 2.41654C24.6969 2.41654 29.1133 4.24575 32.4338 7.56624C32.483 7.61545 32.5306 7.66467 32.5781 7.71389L4.71824 28.713C3.21549 26.0881 2.41654 23.1056 2.41654 20C2.4149 15.3031 4.24411 10.8867 7.56624 7.56624ZM32.4338 32.4338C29.1116 35.7559 24.6969 37.5835 20 37.5835C15.3031 37.5835 10.8867 35.7542 7.56624 32.4338C7.02485 31.8924 6.52284 31.3215 6.06185 30.7243L34.1498 9.55295C36.3793 12.5601 37.5851 16.1874 37.5851 20C37.5851 24.6969 35.7559 29.1133 32.4338 32.4338Z" fill="#ECEFF3"/>
</g>
<defs>
<clipPath id="clip0_385_2943">
<rect width="40" height="40" fill="white"/>
</clipPath>
</defs>
</svg>
